<?xml version="1.0" encoding="UTF-8" standalone="no"?>
<!DOCTYPE svg PUBLIC "-//W3C//DTD SVG 1.1//EN" "http://www.w3.org/Graphics/SVG/1.1/DTD/svg11.dtd">
<svg width="100%" height="100%" viewBox="0 0 100 100" version="1.1" xmlns="http://www.w3.org/2000/svg" xmlns:xlink="http://www.w3.org/1999/xlink" xml:space="preserve" xmlns:serif="http://www.serif.com/" style="fill-rule:evenodd;clip-rule:evenodd;stroke-linecap:round;stroke-linejoin:round;stroke-miterlimit:1.5;">
    <g transform="matrix(1,0,0,1,-623.278,-251.141)">
        <g transform="matrix(1,0,0,1,623.278,251.141)">
            <rect x="0" y="0" width="100" height="100" style="fill:none;"/>
        </g>
        <g transform="matrix(0.656182,0,0,0.656182,98.333,-183.259)">
            <path d="M876.198,662.011C918.253,662.011 952.397,696.154 952.397,738.209C952.397,780.264 918.253,814.408 876.198,814.408C834.143,814.408 800,780.264 800,738.209C800,696.154 834.143,662.011 876.198,662.011ZM876.198,666.456C915.8,666.456 947.952,698.608 947.952,738.209C947.952,777.811 915.8,809.963 876.198,809.963C836.597,809.963 804.445,777.811 804.445,738.209C804.445,698.608 836.597,666.456 876.198,666.456Z" style="fill:rgb(221,143,104);"/>
        </g>
        <g transform="matrix(0.862672,0,0,0.862672,89.75,39.125)">
            <path d="M695.531,274.631C694.183,274.228 692.755,274.012 691.277,274.012L661.562,274.012C653.363,274.012 646.705,280.669 646.705,288.869L646.705,318.584C646.705,326.783 653.363,333.441 661.562,333.441L691.277,333.441C699.477,333.441 706.134,326.783 706.134,318.584L706.134,288.869C706.134,287.54 705.959,286.251 705.631,285.025" style="fill:none;stroke:rgb(221,143,104);stroke-width:3.38px;"/>
        </g>
        <g transform="matrix(0.470646,0,0,0.457722,354.924,162.119)">
            <path d="M706.134,303.726C706.134,287.327 693.185,274.012 677.236,274.012L675.604,274.012C659.654,274.012 646.705,287.327 646.705,303.726C646.705,320.126 659.654,333.441 675.604,333.441L677.236,333.441C693.185,333.441 706.134,320.126 706.134,303.726Z" style="fill:none;stroke:rgb(221,143,104);stroke-width:6.28px;"/>
        </g>
        <g transform="matrix(0.610715,0,0,0.586561,663.096,251.63)">
            <path d="M50.042,28.114C51.289,40.522 58.707,47.762 72.012,50.084C58.804,51.409 52.039,59.294 50.042,72.054C46.782,58.272 39.453,51.109 28.072,50.084C41.258,47.73 49.023,40.783 50.042,28.114Z" style="fill:none;stroke:rgb(221,143,104);stroke-width:4.84px;"/>
        </g>
    </g>
</svg>
