<?xml version="1.0" encoding="UTF-8" standalone="no"?>
<!DOCTYPE svg PUBLIC "-//W3C//DTD SVG 1.1//EN" "http://www.w3.org/Graphics/SVG/1.1/DTD/svg11.dtd">
<svg width="100%" height="100%" viewBox="0 0 100 100" version="1.1" xmlns="http://www.w3.org/2000/svg" xmlns:xlink="http://www.w3.org/1999/xlink" xml:space="preserve" xmlns:serif="http://www.serif.com/" style="fill-rule:evenodd;clip-rule:evenodd;stroke-linecap:round;stroke-linejoin:round;stroke-miterlimit:1.5;">
    <g>
        <g id="work">
            <rect x="0" y="0" width="100" height="100" style="fill:none;"/>
            <g>
                <g transform="matrix(0.656182,0,0,0.656182,-524.945,-434.4)">
                    <path d="M876.198,662.011C918.253,662.011 952.397,696.154 952.397,738.209C952.397,780.264 918.253,814.408 876.198,814.408C834.143,814.408 800,780.264 800,738.209C800,696.154 834.143,662.011 876.198,662.011ZM876.198,666.456C915.8,666.456 947.952,698.608 947.952,738.209C947.952,777.811 915.8,809.963 876.198,809.963C836.597,809.963 804.445,777.811 804.445,738.209C804.445,698.608 836.597,666.456 876.198,666.456Z" style="fill:rgb(34,34,61);"/>
                </g>
                <g transform="matrix(-1,1.22465e-16,5.41784e-17,0.4424,845.762,-107.217)">
                    <path d="M824.632,325.897L794.545,290.78L766.892,325.897" style="fill:none;stroke:rgb(34,34,61);stroke-width:3.77px;"/>
                </g>
                <g transform="matrix(1,0,0,1.18998,-745.762,-307.587)">
                    <rect x="777.345" y="283.013" width="37.619" height="22.134" style="fill:white;stroke:rgb(34,34,61);stroke-width:2.65px;"/>
                </g>
                <g transform="matrix(1,0,0,1,-1.21717,-2.67924)">
                    <g transform="matrix(1,0,0,1.05769,-744.545,-267.917)">
                        <path d="M824.632,290.78L794.545,305.469L766.892,290.78L766.892,325.897L824.632,325.897L824.632,290.78Z" style="fill:white;stroke:rgb(34,34,61);stroke-width:2.83px;"/>
                    </g>
                    <g transform="matrix(1,0,0,1,-744.545,-251.141)">
                        <path d="M766.892,327.923L794.545,305.865L824.632,327.923" style="fill:none;stroke:rgb(34,34,61);stroke-width:2.92px;"/>
                    </g>
                </g>
            </g>
        </g>
    </g>
</svg>
