<?xml version="1.0" encoding="UTF-8" standalone="no"?>
<!DOCTYPE svg PUBLIC "-//W3C//DTD SVG 1.1//EN" "http://www.w3.org/Graphics/SVG/1.1/DTD/svg11.dtd">
<svg width="100%" height="100%" viewBox="0 0 100 100" version="1.1" xmlns="http://www.w3.org/2000/svg" xmlns:xlink="http://www.w3.org/1999/xlink" xml:space="preserve" xmlns:serif="http://www.serif.com/" style="fill-rule:evenodd;clip-rule:evenodd;stroke-linecap:round;stroke-linejoin:round;stroke-miterlimit:1.5;">
    <g transform="matrix(1,0,0,1,-497.986,-256.673)">
        <g transform="matrix(1,0,0,1,497.986,256.673)">
            <rect x="0" y="0" width="100" height="100" style="fill:none;"/>
        </g>
        <g transform="matrix(0.656182,0,0,0.656182,-26.959,-177.727)">
            <circle cx="876.198" cy="738.209" r="76.198" style="fill:none;"/>
        </g>
        <g transform="matrix(0.656182,0,0,0.656182,-26.959,-177.727)">
            <path d="M876.198,662.011C918.253,662.011 952.397,696.154 952.397,738.209C952.397,780.264 918.253,814.408 876.198,814.408C834.143,814.408 800,780.264 800,738.209C800,696.154 834.143,662.011 876.198,662.011Z" style="fill:none;"/>
            <clipPath id="_clip1">
                <path d="M876.198,662.011C918.253,662.011 952.397,696.154 952.397,738.209C952.397,780.264 918.253,814.408 876.198,814.408C834.143,814.408 800,780.264 800,738.209C800,696.154 834.143,662.011 876.198,662.011Z"/>
            </clipPath>
            <g clip-path="url(#_clip1)">
                <g transform="matrix(1.31835,0,0,1.61949,161.385,250.393)">
                    <path d="M580.819,292.123L560.981,278.524L508.209,278.524L508.209,356.673L580.819,356.673L580.819,292.123Z" style="fill:none;stroke:rgb(179,198,184);stroke-width:3.01px;"/>
                </g>
                <g transform="matrix(2.06193,0,0,2.06193,-267.559,119.802)">
                    <path d="M566.71,282.093C566.71,282.093 568.898,285.987 569.701,291.201C574.629,291.056 576.071,291.944 579.393,292.775C578.613,290.16 568.096,282.513 566.71,282.093Z" style="fill:white;stroke:rgb(179,198,184);stroke-width:2.16px;"/>
                </g>
                <g transform="matrix(1.52397,0,0,1.52397,838.312,733.435)">
                    <text x="0px" y="0px" style="font-family:'CourierNewPS-BoldMT', 'Courier New', monospace;font-weight:700;font-size:25px;fill:rgb(179,198,184);">cv</text>
                </g>
                <g transform="matrix(1.52397,0,0,1.52397,41.0846,270.85)">
                    <path d="M526.253,311.48L566.452,311.48" style="fill:none;stroke:rgb(179,198,184);stroke-width:2.92px;"/>
                </g>
                <g transform="matrix(1.7903,0,0,1.52397,-99.0701,283.936)">
                    <path d="M526.253,311.48L566.452,311.48" style="fill:none;stroke:rgb(179,198,184);stroke-width:2.67px;"/>
                </g>
                <g transform="matrix(1.52397,0,0,1.52397,41.0846,297.021)">
                    <path d="M526.253,311.48L566.452,311.48" style="fill:none;stroke:rgb(179,198,184);stroke-width:2.92px;"/>
                </g>
                <g transform="matrix(1.7903,0,0,1.52397,-99.0701,310.7)">
                    <path d="M526.253,311.48L566.452,311.48" style="fill:none;stroke:rgb(179,198,184);stroke-width:2.67px;"/>
                </g>
                <g transform="matrix(1.52397,0,0,1.52397,41.0846,323.785)">
                    <path d="M526.253,311.48L566.452,311.48" style="fill:none;stroke:rgb(179,198,184);stroke-width:2.92px;"/>
                </g>
            </g>
            <path d="M876.198,662.011C918.253,662.011 952.397,696.154 952.397,738.209C952.397,780.264 918.253,814.408 876.198,814.408C834.143,814.408 800,780.264 800,738.209C800,696.154 834.143,662.011 876.198,662.011ZM876.198,666.431C915.814,666.431 947.977,698.593 947.977,738.209C947.977,777.825 915.814,809.988 876.198,809.988C836.582,809.988 804.42,777.825 804.42,738.209C804.42,698.593 836.582,666.431 876.198,666.431Z" style="fill:rgb(179,198,184);"/>
        </g>
    </g>
</svg>
